# xmcd
#
# Track frame offsets:
#	150
#	21760
#	43300
#	71552
#	97742
#	112270
#	134685
#	157637
#	177620
#	202520
#	219762
#	235570
#	259580
#
# Disc length: 3875 seconds
#
# Revision: 1
# Processed by: cddbd v1.5.2PL0 Copyright (c) Steve Scherf et al.
# Submitted via: audiograbber 1.83.01
#
DISCID=a70f210d
DTITLE=Eddie Cotton, Jr. - Extra
DYEAR=2002
DGENRE=Blues
TTITLE0=Feelin' Kinda Good
TTITLE1=Let's Straighten It Out
TTITLE2=Extra
TTITLE3=Be Good To Me
TTITLE4=Wrapped Up In Love
TTITLE5=End Of The Rainbow (Acoustic Version)
TTITLE6=End Of The Rainbow
TTITLE7=I've Got A Right
TTITLE8=Cool With Me
TTITLE9=Time Will Tell
TTITLE10=Killing Floor (Shouldn't Have Quit You)
TTITLE11=Let Me Love You Baby
TTITLE12=Take Me To The River
EXTD=
EXTT0=
EXTT1=
EXTT2=
EXTT3=
EXTT4=
EXTT5=
EXTT6=
EXTT7=
EXTT8=
EXTT9=
EXTT10=
EXTT11=
EXTT12=
PLAYORDER=
